PathFileType	4	(X/Y/Z)	C:\Users\italobelli\Desktop\GitHub\PTbot_officialCBL\Personal_Results\SHRUG02_noisy2.trc
DataRate	CameraRate	NumFrames	NumMarkers	Units	OrigDataRate	OrigDataStartFrame	OrigNumFrames
112.250000	112.250000	21	9	m	112.250000	338	450
Frame#	Time		gu		centelbow		EpL		centpxt8		centijc7		ij		ts		aa		ai
			X1	Y1	Z1	X2	Y2	Z2	X3	Y3	Z3	X4	Y4	Z4	X5	Y5	Z5	X6	Y6	Z6	X7	Y7	Z7	X8	Y8	Z8	X9	Y9	Z9

338	3.0022	-0.081346	-0.012573	0.16252	-0.12339	-0.25387	0.20404	-0.10228	-0.24885	0.22787	-0.046816	-0.15316	-0.008669	-0.046816	0.031938	-0.008669	0	0	0	-0.13817	0.03031	0.054938	-0.10621	0.025344	0.16973	-0.16104	-0.080659	0.061919
339	3.0111	-0.081293	-0.012561	0.16255	-0.12332	-0.25376	0.20406	-0.10222	-0.24874	0.22789	-0.046816	-0.15316	-0.008669	-0.046816	0.031938	-0.008669	0	0	0	-0.13815	0.030321	0.054983	-0.10615	0.025373	0.16977	-0.16102	-0.080647	0.061983
340	3.02	-0.081236	-0.01255	0.16258	-0.12323	-0.25364	0.20408	-0.10215	-0.24863	0.22791	-0.046816	-0.15316	-0.008669	-0.046816	0.031938	-0.008669	0	0	0	-0.13812	0.030331	0.055031	-0.1061	0.025403	0.16982	-0.16099	-0.080635	0.062049
341	3.029	-0.081174	-0.012539	0.16262	-0.12314	-0.25352	0.2041	-0.10207	-0.24852	0.22793	-0.046816	-0.15316	-0.008669	-0.046816	0.031938	-0.008669	0	0	0	-0.1381	0.030341	0.05508	-0.10604	0.025433	0.16986	-0.16096	-0.080624	0.06212
342	3.0379	-0.081109	-0.012527	0.16266	-0.12303	-0.25341	0.20412	-0.10198	-0.24841	0.22796	-0.046816	-0.15316	-0.008669	-0.046816	0.031938	-0.008669	0	0	0	-0.13807	0.030351	0.055132	-0.10598	0.025462	0.16991	-0.16094	-0.080613	0.062193
343	3.0468	-0.081039	-0.012516	0.16271	-0.12292	-0.25329	0.20414	-0.10187	-0.24829	0.22798	-0.046816	-0.15316	-0.008669	-0.046816	0.031938	-0.008669	0	0	0	-0.13805	0.030361	0.055185	-0.10592	0.025492	0.16995	-0.16091	-0.080602	0.06227
344	3.0557	-0.080966	-0.012505	0.16276	-0.1228	-0.25317	0.20417	-0.10175	-0.24818	0.22801	-0.046816	-0.15316	-0.008669	-0.046816	0.031938	-0.008669	0	0	0	-0.13802	0.03037	0.05524	-0.10586	0.025521	0.17	-0.16088	-0.080591	0.062349
345	3.0646	-0.080888	-0.012494	0.16282	-0.12266	-0.25305	0.2042	-0.10162	-0.24806	0.22803	-0.046816	-0.15316	-0.008669	-0.046816	0.031938	-0.008669	0	0	0	-0.13799	0.030379	0.055297	-0.1058	0.025551	0.17005	-0.16085	-0.080581	0.062431
346	3.0735	-0.080808	-0.012484	0.16287	-0.12252	-0.25293	0.20423	-0.10148	-0.24795	0.22806	-0.046816	-0.15316	-0.008669	-0.046816	0.031938	-0.008669	0	0	0	-0.13797	0.030388	0.055356	-0.10573	0.02558	0.1701	-0.16082	-0.080571	0.062516
347	3.0824	-0.080724	-0.012473	0.16293	-0.12237	-0.25281	0.20427	-0.10133	-0.24783	0.22809	-0.046816	-0.15316	-0.008669	-0.046816	0.031938	-0.008669	0	0	0	-0.13794	0.030396	0.055416	-0.10566	0.025609	0.17015	-0.16079	-0.080561	0.062603
348	3.0913	-0.080636	-0.012462	0.163	-0.12222	-0.25269	0.2043	-0.10117	-0.24771	0.22812	-0.046816	-0.15316	-0.008669	-0.046816	0.031938	-0.008669	0	0	0	-0.13791	0.030405	0.055477	-0.10559	0.025638	0.17021	-0.16076	-0.080551	0.062693
349	3.1002	-0.080546	-0.012452	0.16306	-0.12205	-0.25257	0.20434	-0.101	-0.2476	0.22816	-0.046816	-0.15316	-0.008669	-0.046816	0.031938	-0.008669	0	0	0	-0.13788	0.030413	0.05554	-0.10552	0.025667	0.17026	-0.16072	-0.080542	0.062785
350	3.1091	-0.080453	-0.012441	0.16313	-0.12188	-0.25244	0.20438	-0.10083	-0.24748	0.22819	-0.046816	-0.15316	-0.008669	-0.046816	0.031938	-0.008669	0	0	0	-0.13786	0.030421	0.055605	-0.10545	0.025696	0.17031	-0.16069	-0.080532	0.062879
351	3.118	-0.080358	-0.012431	0.16321	-0.1217	-0.25232	0.20442	-0.10064	-0.24736	0.22823	-0.046816	-0.15316	-0.008669	-0.046816	0.031938	-0.008669	0	0	0	-0.13783	0.030429	0.05567	-0.10538	0.025725	0.17037	-0.16066	-0.080523	0.062975
352	3.1269	-0.08026	-0.01242	0.16328	-0.12152	-0.2522	0.20447	-0.10045	-0.24724	0.22826	-0.046816	-0.15316	-0.008669	-0.046816	0.031938	-0.008669	0	0	0	-0.1378	0.030437	0.055737	-0.10531	0.025755	0.17042	-0.16063	-0.080514	0.063072
353	3.1359	-0.08016	-0.01241	0.16336	-0.12133	-0.25207	0.20451	-0.10025	-0.24712	0.2283	-0.046816	-0.15316	-0.008669	-0.046816	0.031938	-0.008669	0	0	0	-0.13777	0.030445	0.055804	-0.10523	0.025784	0.17048	-0.16059	-0.080505	0.063171
354	3.1448	-0.080058	-0.0124	0.16344	-0.12114	-0.25195	0.20456	-0.10004	-0.247	0.22834	-0.046816	-0.15316	-0.008669	-0.046816	0.031938	-0.008669	0	0	0	-0.13774	0.030452	0.055872	-0.10515	0.025813	0.17053	-0.16056	-0.080496	0.063272
355	3.1537	-0.079953	-0.012389	0.16352	-0.12094	-0.25182	0.20461	-0.099823	-0.24688	0.22838	-0.046816	-0.15316	-0.008669	-0.046816	0.031938	-0.008669	0	0	0	-0.13771	0.03046	0.055942	-0.10508	0.025842	0.17059	-0.16053	-0.080487	0.063374
356	3.1626	-0.079847	-0.012379	0.1636	-0.12073	-0.2517	0.20466	-0.099603	-0.24676	0.22842	-0.046816	-0.15316	-0.008669	-0.046816	0.031938	-0.008669	0	0	0	-0.13768	0.030467	0.056012	-0.105	0.025871	0.17065	-0.1605	-0.080478	0.063478
357	3.1715	-0.07974	-0.012368	0.16369	-0.12052	-0.25158	0.20471	-0.099378	-0.24664	0.22847	-0.046816	-0.15316	-0.008669	-0.046816	0.031938	-0.008669	0	0	0	-0.13765	0.030475	0.056082	-0.10492	0.0259	0.17071	-0.16046	-0.080469	0.063582
358	3.1804	-0.079631	-0.012358	0.16377	-0.12031	-0.25145	0.20477	-0.099148	-0.24652	0.22851	-0.046816	-0.15316	-0.008669	-0.046816	0.031938	-0.008669	0	0	0	-0.13762	0.030482	0.056153	-0.10485	0.025929	0.17076	-0.16043	-0.08046	0.063687
